<svg width="36.210693" height="36.000000" viewBox="0 0 36.2107 36" fill="none" xmlns="http://www.w3.org/2000/svg" xmlns:xlink="http://www.w3.org/1999/xlink">
	<desc>
			Created with Pixso.
	</desc>
	<defs>
		<clipPath id="clip555_52963">
			<rect id="24 Universal / ds_ic_24_trashbin" width="36.210743" height="36.000000" fill="white" fill-opacity="0"/>
		</clipPath>
	</defs>
	<g clip-path="url(#clip555_52963)">
		<path id="Shape" d="M21.8767 4.5C22.71 4.5 23.3855 5.17157 23.3855 6C23.3855 6.76926 22.803 7.40326 22.0525 7.48991L21.8767 7.5L14.3328 7.5C13.4995 7.5 12.824 6.82843 12.824 6C12.824 5.23074 13.4065 4.59674 14.1567 4.51009L14.3328 4.5L21.8767 4.5ZM30.1748 10.5C30.1748 9.67157 29.4995 9 28.6663 9L7.54321 9L7.36719 9.01009C6.61694 9.09674 6.03442 9.73074 6.03442 10.5C6.03442 11.3284 6.70996 12 7.54321 12L7.54321 28.5L7.55078 28.7643C7.68872 31.1258 9.65991 33 12.0696 33L24.1399 33L24.4058 32.9924C26.781 32.8554 28.6663 30.8957 28.6663 28.5L28.6663 12L28.842 11.9899C29.5925 11.9033 30.1748 11.2693 30.1748 10.5ZM25.6487 12L10.5608 12L10.5608 28.5C10.5608 29.2685 11.144 29.9032 11.8938 29.9899L12.0696 30L24.1399 30C24.9128 30 25.5513 29.4202 25.6384 28.6748L25.6487 28.5L25.6487 12ZM16.5862 15.5751C16.499 14.8291 15.8613 14.25 15.0874 14.25C14.2542 14.25 13.5786 14.9216 13.5786 15.75L13.5786 26.25L13.5889 26.4249C13.676 27.1709 14.3137 27.75 15.0874 27.75C15.9207 27.75 16.5962 27.0784 16.5962 26.25L16.5962 15.75L16.5862 15.5751ZM22.6213 15.5751C22.5342 14.8291 21.8962 14.25 21.1226 14.25C20.2893 14.25 19.6138 14.9216 19.6138 15.75L19.6138 26.25L19.624 26.4249C19.7112 27.1709 20.3489 27.75 21.1226 27.75C21.9558 27.75 22.6313 27.0784 22.6313 26.25L22.6313 15.75L22.6213 15.5751Z" clip-rule="evenodd" fill="#CFCFCF" fill-opacity="1.000000" fill-rule="evenodd"/>
	</g>
</svg>
