<svg width="24.000000" height="24.000000" viewBox="0 0 24 24" fill="none" xmlns="http://www.w3.org/2000/svg" xmlns:xlink="http://www.w3.org/1999/xlink">
	<desc>
			Created with Pixso.
	</desc>
	<defs/>
	<rect width="24.000000" height="24.000000" fill="#FFFFFF" fill-opacity="0"/>
	<path d="M12 4C11.4478 4 11 4.44775 11 5L11 11L5 11C4.44775 11 4 11.4478 4 12C4 12.5522 4.44775 13 5 13L11 13L11 19C11 19.5522 11.4478 20 12 20C12.5522 20 13 19.5522 13 19L13 13L19 13C19.5522 13 20 12.5522 20 12C20 11.4478 19.5522 11 19 11L13 11L13 5C13 4.44775 12.5522 4 12 4Z" clip-rule="evenodd" fill="#0E479E" fill-opacity="1.000000" fill-rule="evenodd"/>
</svg>
